<svg xmlns="http://www.w3.org/2000/svg" xmlns:xlink="http://www.w3.org/1999/xlink" width="1080" zoomAndPan="magnify" viewBox="0 0 810 1012.49997" height="1350" preserveAspectRatio="xMidYMid meet" version="1.0"><defs><clipPath id="8b0f2bd35d"><path d="M 243.078125 314 L 560 314 L 560 697 L 243.078125 697 Z M 243.078125 314 " clip-rule="nonzero"/></clipPath><clipPath id="def8cd1364"><path d="M 243.078125 652 L 563 652 L 563 702 L 243.078125 702 Z M 243.078125 652 " clip-rule="nonzero"/></clipPath><clipPath id="86e49b957b"><path d="M 406 310.03125 L 563 310.03125 L 563 588 L 406 588 Z M 406 310.03125 " clip-rule="nonzero"/></clipPath><clipPath id="3759dc3f08"><path d="M 10 38 L 809.800781 38 L 809.800781 973 L 10 973 Z M 10 38 " clip-rule="nonzero"/></clipPath></defs><g clip-path="url(#8b0f2bd35d)"><path fill="#e6a09d" d="M 250.265625 328.730469 C 296.742188 337.609375 345.765625 332.667969 389.53125 314.695312 C 392.21875 321.34375 394.910156 327.992188 397.59375 334.640625 C 400.4375 329.410156 403.277344 324.171875 406.121094 318.941406 C 453.664062 321.359375 501.367188 320.648438 548.820312 316.8125 C 558.621094 411.625 559.332031 507.382812 552.75 602.496094 C 546.730469 604.335938 540.710938 606.175781 534.683594 608.023438 C 541.578125 609.363281 548.476562 610.699219 555.371094 612.039062 C 553.761719 637.613281 555.136719 663.367188 559.472656 688.617188 C 454.019531 691.734375 348.546875 694.375 243.074219 696.550781 C 250.375 672.082031 253.53125 646.382812 252.347656 620.871094 C 259.667969 617.992188 266.988281 615.101562 274.304688 612.21875 C 266.792969 610.371094 259.269531 608.53125 251.753906 606.683594 C 253.367188 550.652344 251.792969 494.523438 247.042969 438.671875 C 257.695312 432.957031 268.359375 427.238281 279.011719 421.523438 C 268.332031 416.683594 256.011719 415.574219 244.648438 418.421875 C 249.835938 386.359375 248.898438 353.324219 250.265625 328.730469 Z M 250.265625 328.730469 " fill-opacity="1" fill-rule="nonzero"/></g><path fill="#da8f8b" d="M 277.335938 425.023438 C 272.679688 433.878906 265.023438 441.113281 255.925781 445.273438 C 261.640625 469.296875 253.453125 494.6875 257.226562 519.097656 C 258.972656 530.402344 263.285156 541.734375 261.125 552.976562 C 259.714844 560.328125 255.558594 567.359375 256.492188 574.792969 C 256.96875 578.597656 258.753906 582.128906 259.371094 585.910156 C 259.988281 589.691406 258.957031 594.257812 255.878906 596.253906 C 265.6875 600.890625 275.910156 604.648438 286.378906 607.46875 C 279.332031 614.546875 269.632812 618.914062 259.660156 619.5 C 259.316406 630.316406 258.972656 641.128906 258.628906 651.933594 C 258.574219 653.78125 258.550781 655.761719 259.574219 657.296875 C 261.359375 659.960938 265.179688 659.914062 268.351562 660.390625 C 283.582031 662.667969 293.226562 682.394531 308.570312 681.007812 C 287.589844 685.03125 266.519531 688.523438 245.359375 691.476562 C 247.144531 666.890625 248.921875 642.304688 250.707031 617.707031 C 259.082031 616.738281 267.246094 613.933594 274.457031 609.566406 C 267.355469 607.679688 260.253906 605.792969 253.15625 603.902344 C 252.585938 547.535156 250.550781 491.171875 247.042969 434.914062 C 260.492188 430.953125 272.867188 423.410156 277.34375 425.015625 Z M 277.335938 425.023438 " fill-opacity="1" fill-rule="nonzero"/><path fill="#eda7a5" d="M 379.761719 332.886719 C 347.253906 344.53125 313.75 353.402344 279.738281 359.359375 C 273.640625 360.425781 266.777344 361.238281 261.78125 357.582031 C 261.546875 371.644531 261.3125 385.714844 261.070312 399.78125 C 279.574219 399.464844 298 408.574219 309 423.464844 C 296.421875 431.085938 283.839844 438.695312 271.269531 446.3125 C 270.535156 446.761719 269.78125 447.222656 269.257812 447.902344 C 268.269531 449.1875 268.285156 450.949219 268.375 452.570312 C 270.171875 486.59375 280.945312 520.386719 276.4375 554.160156 C 275.550781 560.761719 274.085938 567.390625 274.792969 574.015625 C 275.496094 580.640625 278.902344 587.476562 285.039062 590.058594 C 288.328125 591.445312 292.105469 591.5 295.246094 593.207031 C 303.527344 597.710938 302.378906 610.246094 297.625 618.390625 C 292.867188 626.535156 285.554688 633.816406 284.710938 643.210938 C 299.355469 646.789062 314.054688 650.125 328.8125 653.210938 C 342.488281 656.070312 356.296875 658.730469 370.269531 658.910156 C 410.300781 659.414062 449.335938 639.578125 489.023438 644.800781 C 496.695312 645.8125 504.570312 647.738281 512.039062 645.726562 C 519.503906 643.710938 526.136719 635.789062 523.402344 628.546875 C 521.101562 622.453125 513.132812 618.820312 513.304688 612.3125 C 513.46875 606.128906 520.742188 603.019531 524.367188 598 C 528.203125 592.691406 527.691406 585.457031 529.933594 579.292969 C 531.675781 574.503906 535.042969 570.484375 537.335938 565.929688 C 545.09375 550.519531 539.605469 532.15625 536.148438 515.25 C 526.183594 466.546875 534.628906 416.246094 536.132812 366.554688 C 536.367188 358.664062 535.859375 349.535156 529.53125 344.804688 C 523.160156 340.042969 514.292969 342.195312 506.363281 342.839844 C 481.382812 344.867188 457.015625 329.503906 432.257812 333.347656 C 429.507812 333.777344 426.691406 334.484375 424.523438 336.238281 C 420.835938 339.222656 419.863281 344.476562 416.75 348.054688 C 412.148438 353.347656 403.691406 353.730469 397.328125 350.777344 C 390.964844 347.828125 386.238281 342.28125 379.769531 332.886719 Z M 379.761719 332.886719 " fill-opacity="1" fill-rule="nonzero"/><path fill="#e8ada9" d="M 490.410156 369.132812 C 453.125 359.703125 413.484375 373.335938 375.496094 367.355469 C 361.34375 365.125 347.535156 360.183594 333.210938 360.113281 C 318.886719 360.042969 303.082031 366.484375 298.0625 379.90625 C 307.363281 386.203125 317.132812 393.054688 321.523438 403.390625 C 323.667969 408.433594 324.359375 413.960938 325.023438 419.394531 C 326.1875 428.898438 327.269531 438.953125 323.339844 447.683594 C 318.558594 458.316406 307.121094 465.058594 303.222656 476.054688 C 299.285156 487.164062 304.082031 499.214844 307.667969 510.445312 C 313.140625 527.566406 315.863281 545.570312 315.699219 563.539062 C 315.652344 569.136719 315.378906 574.996094 317.828125 580.03125 C 320.367188 585.230469 325.40625 588.675781 330.238281 591.871094 C 342.660156 600.074219 355.636719 608.390625 370.347656 610.675781 C 382.097656 612.5 394.082031 610.324219 405.695312 607.789062 C 419.050781 604.867188 432.296875 601.453125 445.398438 597.554688 C 452.226562 595.527344 459.136719 593.300781 464.976562 589.230469 C 476.445312 581.226562 482.136719 567.320312 485.902344 553.855469 C 489.671875 540.386719 492.265625 526.238281 499.828125 514.476562 C 504.4375 507.3125 510.761719 501.289062 514.839844 493.804688 C 521.601562 481.394531 521.453125 466.382812 519.425781 452.398438 C 517.761719 440.949219 514.957031 429.667969 514.058594 418.132812 C 513.304688 408.496094 513.886719 398.699219 511.851562 389.25 C 509.816406 379.796875 504.140625 372.625 490.394531 369.140625 Z M 490.410156 369.132812 " fill-opacity="1" fill-rule="nonzero"/><g clip-path="url(#def8cd1364)"><path fill="#f9b6b1" d="M 243.417969 695 C 253.03125 690.945312 257.710938 678.078125 252.960938 668.792969 C 284.625 671.863281 316.726562 670.3125 347.949219 664.210938 C 374.277344 659.066406 400.59375 650.65625 427.300781 653.070312 C 436.523438 653.898438 445.625 656.023438 454.886719 656.195312 C 465.0625 656.382812 475.316406 654.199219 485.367188 655.824219 C 503.207031 658.707031 520.945312 673.226562 537.335938 665.605469 C 542.917969 663.015625 547.636719 657.964844 553.785156 657.644531 C 553.109375 659.300781 552.429688 660.960938 551.757812 662.628906 C 556.101562 671.164062 559.597656 680.132812 562.191406 689.347656 C 547.308594 696.277344 530.058594 694.601562 513.769531 696.605469 C 506.410156 697.515625 499.167969 699.199219 491.820312 700.222656 C 480.6875 701.78125 469.398438 701.828125 458.160156 701.867188 C 421.085938 702.007812 383.949219 702.148438 347.035156 698.757812 C 331.636719 697.339844 316.242188 695.3125 300.789062 695.730469 C 280.34375 696.277344 259.824219 701.101562 243.417969 694.992188 Z M 243.417969 695 " fill-opacity="1" fill-rule="nonzero"/></g><path fill="#da8f8b" d="M 409.6875 320.546875 C 421.390625 336.136719 440.773438 344.492188 460.101562 347.011719 C 479.425781 349.527344 499.019531 346.878906 518.332031 344.226562 C 515.089844 366.015625 516.9375 388.550781 523.683594 409.527344 C 527.441406 421.210938 532.648438 434.191406 527.144531 445.164062 C 525.777344 447.886719 523.796875 450.324219 522.886719 453.234375 C 521.359375 458.128906 523.121094 463.375 524.796875 468.222656 C 539.488281 510.867188 548.046875 555.617188 550.121094 600.671875 C 561.421875 574.628906 562.910156 544.449219 554.222656 517.421875 C 551.332031 508.429688 547.355469 499.746094 545.476562 490.492188 C 543.734375 481.894531 543.851562 473.039062 543.976562 464.261719 C 544.453125 430.898438 544.929688 397.53125 545.40625 364.167969 C 545.570312 352.902344 545.195312 340.277344 537.132812 332.417969 C 528.75 324.242188 515.558594 324.554688 503.859375 324.984375 C 473.296875 326.097656 442.636719 324.367188 409.679688 320.554688 Z M 409.6875 320.546875 " fill-opacity="1" fill-rule="nonzero"/><path fill="#da8f8b" d="M 389.640625 320.257812 C 355.871094 349.738281 310.378906 365.382812 265.625 362.90625 C 268.71875 380.855469 265.453125 407.320312 245.351562 418.234375 C 247.902344 394.433594 254.628906 366.398438 250.949219 342.746094 C 297.78125 339.644531 342.582031 317.84375 389.648438 320.257812 Z M 389.640625 320.257812 " fill-opacity="1" fill-rule="nonzero"/><path fill="#f9b6b1" d="M 244.65625 418.40625 C 252.585938 410.5625 260.167969 394.886719 260.726562 383.742188 C 261.28125 372.601562 259.089844 361.523438 256.898438 350.582031 C 284.828125 357.324219 314.863281 355.03125 341.4375 344.113281 C 358.816406 336.980469 374.519531 326.378906 389.898438 315.597656 C 354.941406 323.402344 319.230469 327.867188 283.425781 328.894531 C 278.148438 329.042969 272.8125 329.113281 267.675781 327.898438 C 259.886719 326.058594 251.800781 321.320312 244.445312 324.46875 C 252.734375 358.035156 246.738281 398.355469 244.648438 418.398438 Z M 244.65625 418.40625 " fill-opacity="1" fill-rule="nonzero"/><g clip-path="url(#86e49b957b)"><path fill="#f9b6b1" d="M 406.128906 318.941406 C 429.570312 337.261719 462.996094 345.25 492.585938 342.09375 C 503.019531 340.984375 513.816406 338.484375 523.78125 341.765625 C 524.953125 359.5 516.96875 377.816406 522.582031 394.675781 C 524.765625 401.21875 528.851562 406.945312 531.757812 413.207031 C 536.390625 423.207031 537.886719 434.632812 536 445.492188 C 534.472656 454.246094 530.800781 462.8125 531.574219 471.667969 C 532.21875 478.980469 535.84375 485.636719 538.839844 492.339844 C 547.84375 512.441406 551.644531 534.410156 555.378906 556.125 C 557.21875 566.820312 558.800781 578.777344 552.609375 587.6875 C 566.925781 562.78125 561.996094 531.882812 559.410156 503.261719 C 553.769531 440.660156 561.585938 377.402344 555.558594 314.839844 C 555.449219 313.6875 555.300781 312.464844 554.550781 311.589844 C 553.234375 310.0625 550.832031 310.34375 548.851562 310.75 C 500.617188 320.679688 448.007812 323.425781 406.128906 318.949219 Z M 406.128906 318.941406 " fill-opacity="1" fill-rule="nonzero"/></g><path fill="#fbc9c5" d="M 348.164062 329.355469 C 326.636719 334.671875 304.160156 334.234375 282.109375 336.558594 C 279.277344 336.855469 275.777344 337.789062 275.269531 340.597656 C 274.902344 342.628906 276.507812 344.59375 278.425781 345.351562 C 280.34375 346.105469 282.480469 345.949219 284.53125 345.773438 C 293.6875 345.007812 302.847656 344.242188 312.011719 343.472656 C 318.140625 342.957031 324.359375 342.421875 330.132812 340.324219 C 333.734375 339.019531 337.109375 337.105469 340.804688 336.097656 C 346.03125 334.664062 352.804688 334.273438 348.15625 329.363281 Z M 348.164062 329.355469 " fill-opacity="1" fill-rule="nonzero"/><path fill="#fac5c0" d="M 541.007812 321.007812 C 519.882812 325.980469 498.011719 327.742188 476.359375 326.222656 C 485.15625 334.085938 498.449219 334.710938 509.863281 331.742188 C 515.574219 330.253906 521.304688 327.960938 527.167969 328.644531 C 533.03125 329.324219 538.941406 334.5 537.746094 340.277344 C 536.945312 344.144531 533.289062 346.996094 532.71875 350.902344 C 531.742188 357.542969 539.960938 362.929688 538.980469 369.570312 C 538.371094 373.714844 534.386719 376.492188 532.78125 380.359375 C 530.105469 386.796875 534.542969 393.710938 537.484375 400.03125 C 544.007812 414.015625 543.394531 430.128906 542.910156 445.554688 C 542.644531 454.019531 542.714844 463.3125 548.132812 469.828125 C 549.949219 465.53125 550.058594 460.738281 550.136719 456.070312 C 550.832031 415.425781 551.535156 374.769531 552.234375 334.125 C 552.296875 330.648438 552.320312 327.023438 550.816406 323.882812 C 549.3125 320.742188 546.355469 319.753906 541 321.015625 Z M 541.007812 321.007812 " fill-opacity="1" fill-rule="nonzero"/><path fill="#fac5c0" d="M 487.058594 675.019531 C 469.476562 670.664062 451.574219 666.273438 433.5 667.3125 C 423.496094 667.882812 413.671875 670.109375 403.816406 671.933594 C 371.019531 677.992188 337.578125 679.605469 304.253906 681.210938 C 303.183594 685.257812 309.085938 687.164062 313.273438 687.085938 C 337.632812 686.589844 361.992188 686.097656 386.355469 685.605469 C 416.117188 685 445.875 684.398438 475.636719 683.804688 C 481.117188 683.695312 486.871094 683.503906 491.582031 680.71875 C 496.296875 677.929688 499.402344 671.597656 487.058594 675.027344 Z M 487.058594 675.019531 " fill-opacity="1" fill-rule="nonzero"/><g clip-path="url(#3759dc3f08)"><path fill="#edd5af" d="M 17.726562 58.222656 C 28 86.441406 27.550781 118.4375 16.46875 146.335938 C 35.925781 155.636719 31.289062 190.976562 10.082031 194.941406 C 30.066406 205.6875 29.109375 234.453125 23.699219 256.488281 C 18.289062 278.527344 12.351562 305.113281 28.300781 321.269531 C 33.878906 326.90625 42.371094 332.222656 41.148438 340.058594 C 40.378906 345.035156 35.796875 348.34375 32.753906 352.363281 C 19.039062 370.4375 37.9375 398.730469 26.816406 418.515625 C 24.019531 423.511719 19.304688 428.003906 19.472656 433.714844 C 19.941406 449.550781 54.65625 453.648438 46.523438 467.230469 C 36.753906 471.234375 28.375 478.578125 23.136719 487.75 C 32.152344 502.269531 32.546875 520.34375 32.660156 537.441406 C 32.882812 569.945312 33.089844 602.464844 35.515625 635.25 C 40.925781 638.050781 46.351562 640.832031 51.761719 643.628906 C 28.675781 669.273438 28.46875 707.828125 32.789062 742.058594 C 37.109375 776.289062 44.457031 812.136719 32.339844 844.433594 C 30.816406 848.492188 28.957031 852.753906 29.765625 857 C 31.417969 865.664062 42.914062 869.570312 44.832031 878.175781 C 45.941406 883.136719 43.460938 888.113281 41.65625 892.867188 C 31.644531 919.09375 46.503906 954.566406 74.265625 958.550781 C 83.453125 959.863281 92.75 957.835938 102.027344 957.101562 C 122.691406 955.503906 143.824219 960.710938 161.351562 971.757812 C 160.128906 954.453125 168.261719 936.753906 182.199219 926.421875 C 178.445312 943.96875 196.664062 959.246094 214.378906 962.117188 C 232.089844 964.992188 250.21875 960.257812 268.101562 961.6875 C 286.566406 963.171875 304.035156 971.136719 322.5 972.769531 C 340.964844 974.40625 362.8125 966.648438 367.621094 948.742188 C 368.578125 945.191406 369.046875 941.039062 372.070312 938.972656 C 380.09375 933.503906 385.21875 959.882812 392.828125 965.914062 C 396.921875 969.164062 403.066406 963.320312 408.289062 963.546875 C 439.507812 964.917969 470.292969 961.59375 501.511719 962.964844 C 502.019531 952.648438 507.429688 945.078125 507.9375 934.765625 C 513.121094 928.074219 516.050781 936.699219 520.785156 943.707031 C 527.980469 954.378906 542.652344 956.238281 555.480469 957.121094 C 581.535156 958.886719 607.605469 960.652344 633.660156 962.417969 C 648.351562 963.414062 669.558594 957.160156 665.667969 942.957031 C 679.136719 962.269531 705.304688 969.296875 728.652344 966.269531 C 752 963.246094 773.339844 951.917969 794.078125 940.792969 C 791.277344 922.457031 788.480469 904.121094 786.207031 885.710938 C 779.765625 878.871094 773.300781 872.011719 766.859375 865.175781 C 772.496094 862.394531 778.109375 859.613281 783.746094 856.8125 C 795.617188 823.785156 795.1875 786.472656 782.582031 753.726562 C 779.3125 745.253906 775.199219 736.722656 775.460938 727.648438 C 775.6875 720.113281 778.898438 713.070312 781.511719 705.984375 C 789.570312 683.984375 791.785156 659.882812 787.859375 636.789062 C 783.726562 612.480469 774.242188 583.585938 791.65625 566.113281 C 778.710938 569.8125 762.144531 566.5625 756.546875 554.3125 C 750.949219 542.0625 766.710938 525.15625 777.339844 533.421875 C 788.894531 503.417969 782.695312 469.992188 780.871094 437.902344 C 779.050781 405.816406 784.007812 369.253906 809.875 350.164062 C 793.644531 343.121094 790.828125 321.664062 790.582031 303.949219 C 789.511719 225.226562 792.367188 146.433594 799.128906 67.992188 C 799.449219 64.367188 799.714844 60.515625 797.984375 57.320312 C 796.199219 54.050781 792.707031 52.191406 789.324219 50.632812 C 752.265625 33.648438 707.3125 34.984375 671.324219 54.128906 C 664.410156 57.792969 657.496094 62.1875 649.683594 62.714844 C 642.339844 63.203125 635.257812 60.175781 627.96875 59.070312 C 612.339844 56.683594 595.621094 64.011719 586.792969 77.125 C 577.515625 78.308594 578.605469 63.089844 574.171875 54.839844 C 569.738281 46.574219 557.808594 45.65625 549.148438 49.28125 C 540.492188 52.90625 533.523438 59.707031 525.105469 63.859375 C 497.023438 77.6875 464.339844 58.75 433.046875 57.847656 C 413.960938 57.304688 395.4375 63.617188 377.386719 69.851562 C 371.976562 77.742188 366.585938 85.632812 361.175781 93.542969 C 342.390625 69.195312 305.914062 60.554688 278.207031 73.875 C 271.6875 77.011719 265.171875 81.3125 257.957031 80.84375 C 251.289062 80.410156 245.652344 75.957031 239.378906 73.6875 C 216.839844 65.511719 190.144531 85.972656 168.84375 74.964844 C 159.808594 70.304688 153.5 60.515625 143.542969 58.410156 C 135.484375 56.703125 127.445312 60.570312 119.59375 63.070312 C 96.730469 70.359375 70.414062 65.664062 17.761719 58.203125 Z M 17.726562 58.222656 " fill-opacity="1" fill-rule="nonzero"/></g><path fill="#e0c291" d="M 18.722656 60.234375 C 29.183594 66.433594 36.753906 77.3125 38.914062 89.28125 C 39.402344 91.964844 39.609375 94.859375 38.371094 97.28125 C 36.714844 100.515625 32.867188 102.28125 31.605469 105.679688 C 30.367188 109.042969 32.09375 112.6875 33.222656 116.089844 C 36.714844 126.648438 34.011719 139.03125 26.421875 147.164062 C 24.921875 148.78125 23.097656 150.753906 23.738281 152.855469 C 24.113281 154.058594 25.203125 154.867188 26.234375 155.601562 C 30.105469 158.304688 33.972656 161.03125 37.863281 163.734375 C 38.78125 164.394531 39.777344 165.125 40.078125 166.214844 C 40.4375 167.550781 39.628906 168.902344 38.859375 170.046875 C 34.253906 176.90625 29.671875 183.78125 25.070312 190.640625 C 30.480469 210.535156 32.207031 231.410156 31.136719 252.261719 C 42.40625 269.714844 21.558594 296.132812 34.3125 312.550781 C 37.898438 317.175781 43.496094 319.785156 47.722656 323.84375 C 51.949219 327.902344 54.582031 335.023438 50.765625 339.476562 C 47.855469 342.855469 42.21875 343.441406 40.246094 347.441406 C 38.277344 351.480469 41.320312 356.027344 42.578125 360.347656 C 43.929688 365.007812 43.160156 369.988281 42.351562 374.777344 C 38.671875 396.984375 34.988281 419.191406 31.289062 441.417969 C 41.824219 445.664062 50.429688 454.511719 54.390625 465.164062 C 39.363281 462.421875 25.519531 453.628906 16.671875 441.171875 C 20.128906 418.195312 23.566406 395.21875 27.023438 372.261719 C 28.734375 360.929688 29.839844 347.6875 21.671875 339.664062 C 28.132812 336.113281 31.457031 327.675781 29.109375 320.6875 C 26.761719 313.699219 19.039062 308.945312 11.753906 310.015625 C 13.535156 278.527344 15.339844 247.039062 17.125 215.53125 C 17.367188 211.398438 17.238281 206.496094 13.835938 204.148438 C 11.339844 202.4375 7.863281 202.757812 5.367188 201.046875 C 0.273438 197.589844 3.054688 189.511719 7.148438 184.910156 C 11.246094 180.304688 16.597656 175.175781 15.226562 169.183594 C 14.15625 164.523438 9.292969 161.707031 7.414062 157.308594 C 5.347656 152.460938 7.339844 146.9375 9.105469 141.980469 C 18.308594 115.921875 20.957031 87.605469 18.722656 60.214844 Z M 18.722656 60.234375 " fill-opacity="1" fill-rule="nonzero"/><path fill="#e0c291" d="M 792.347656 344.285156 C 778.035156 374.175781 770.410156 407.242188 770.203125 440.382812 C 770.089844 459.828125 772.476562 479.332031 770.390625 498.644531 C 769.414062 507.71875 767.253906 517.09375 761.300781 524.007812 C 755.570312 530.679688 747.003906 534.246094 740.785156 540.464844 C 734.570312 546.683594 731.675781 558.222656 738.570312 563.667969 C 752.039062 562.371094 764.550781 572.367188 770.539062 584.503906 C 776.515625 596.640625 777.359375 610.582031 778.09375 624.109375 C 779.875 656.78125 781.097656 691.800781 763.855469 719.625 C 769.65625 726.371094 769.828125 737.285156 764.230469 744.21875 C 770.765625 742.492188 777.023438 748.933594 778.28125 755.585938 C 779.539062 762.238281 777.527344 769 776.757812 775.726562 C 774.9375 791.507812 779.953125 807.308594 779.671875 823.183594 C 779.386719 839.058594 770.746094 857.226562 754.96875 859.125 C 777.511719 871.617188 778.824219 902.976562 777.246094 928.695312 C 751.945312 950.847656 716.066406 960.335938 683.121094 953.589844 C 683.644531 946.769531 684.039062 939.367188 680.265625 933.65625 C 676.488281 927.945312 666.796875 925.953125 663.078125 931.703125 C 659.375 937.414062 663.882812 946.300781 659.246094 951.277344 C 680.152344 973.316406 716.085938 967.078125 745.40625 959.167969 C 761.394531 954.867188 777.359375 950.546875 793.34375 946.242188 C 792.648438 916.21875 786.375 886.328125 774.9375 858.542969 C 776.234375 853.863281 781.679688 850.800781 786.339844 852.136719 C 798.417969 811.085938 794.753906 765.617188 780.628906 724.886719 C 784.589844 716.46875 788.554688 708.070312 792.539062 699.65625 C 783.257812 690.710938 779.519531 676.46875 783.183594 664.128906 C 785.003906 657.964844 788.554688 652.066406 788.125 645.640625 C 787.824219 641.148438 785.585938 637.074219 783.820312 632.921875 C 779.726562 623.28125 778.109375 612.59375 779.144531 602.164062 C 780.214844 591.34375 784.101562 580.691406 783.03125 569.871094 C 781.960938 559.046875 773.09375 547.660156 762.371094 549.429688 C 770.824219 544.917969 776.027344 534.941406 774.878906 525.4375 C 774.449219 521.921875 773.246094 518.445312 773.679688 514.933594 C 774.503906 508.09375 781.023438 503.472656 783.972656 497.234375 C 791.371094 481.566406 774.277344 464.5625 775.21875 447.261719 C 775.6875 438.730469 780.496094 431.160156 784.460938 423.589844 C 795.863281 401.738281 800.878906 376.617188 798.753906 352.082031 C 801.421875 350.824219 795.691406 347.386719 792.386719 344.230469 Z M 792.347656 344.285156 " fill-opacity="1" fill-rule="nonzero"/><path fill="#e0c291" d="M 181.917969 925.613281 C 184.699219 940.589844 188.363281 955.394531 192.886719 969.933594 C 217.140625 964.675781 242.085938 971.886719 266.652344 975.308594 C 298.605469 979.742188 331.460938 977.636719 362.605469 969.144531 C 357.457031 960.296875 367.394531 947.746094 377.425781 949.777344 C 387.457031 951.804688 392.320312 965.574219 386.683594 974.125 C 425.585938 967.925781 464.960938 964.691406 504.367188 964.484375 C 505.53125 957.140625 506.714844 949.792969 507.882812 942.449219 C 517.066406 934.558594 533.972656 940.4375 536.28125 952.332031 C 536.902344 955.523438 536.769531 959.207031 539.121094 961.460938 C 541.1875 963.453125 544.378906 963.492188 547.253906 963.414062 C 569.476562 962.851562 591.675781 962.308594 613.898438 961.742188 C 598.589844 941.019531 560.683594 958.886719 542.085938 941.058594 C 534.894531 934.164062 530.761719 922.136719 520.84375 921.238281 C 510.4375 920.296875 504.5 932.265625 497.71875 940.230469 C 474.277344 967.738281 428.59375 951.015625 394.632812 963.378906 C 397.824219 947.914062 388.019531 930.855469 373.066406 925.820312 C 365.289062 935.269531 357.136719 945.003906 346.09375 950.300781 C 335.046875 955.582031 320.226562 955.09375 312.226562 945.828125 C 280.648438 951.070312 248.882812 955.203125 217.007812 958.210938 C 215.335938 949.136719 204.667969 945.53125 196.402344 941.433594 C 188.136719 937.339844 180.472656 926.179688 181.917969 925.59375 Z M 181.917969 925.613281 " fill-opacity="1" fill-rule="nonzero"/><path fill="#e0c291" d="M 53.433594 647.949219 C 40.71875 671.171875 39.214844 700.238281 49.488281 724.640625 C 53.019531 733.023438 57.960938 741.589844 56.476562 750.550781 C 55.011719 759.378906 47.421875 767.101562 48.851562 775.933594 C 50.183594 784.253906 58.9375 789.347656 62.167969 797.125 C 68.273438 811.875 52.609375 827.65625 54.878906 843.457031 C 56.269531 853.148438 64.027344 860.457031 69.496094 868.574219 C 74.980469 876.691406 77.777344 888.960938 70.378906 895.367188 C 67.953125 897.46875 64.6875 898.636719 62.84375 901.265625 C 59.464844 906.09375 62.640625 912.652344 65.832031 917.609375 C 72.894531 928.640625 80.050781 939.613281 87.300781 950.546875 C 74.210938 951.878906 58.261719 951.917969 51.253906 940.777344 C 49.132812 937.375 48.210938 933.394531 47.328125 929.484375 C 42.425781 907.730469 37.523438 885.972656 32.601562 864.199219 C 31.4375 859.03125 30.273438 853.808594 30.421875 848.507812 C 30.535156 844.488281 31.417969 840.542969 32.171875 836.578125 C 40.398438 793.292969 33.636719 748.785156 31.289062 704.785156 C 29.917969 678.855469 32.601562 648.082031 53.433594 647.949219 Z M 53.433594 647.949219 " fill-opacity="1" fill-rule="nonzero"/><path fill="#e0c291" d="M 244.734375 84.09375 C 262.222656 93.113281 284.3125 92.492188 301.273438 82.535156 C 305.480469 80.054688 309.59375 76.972656 314.460938 76.410156 C 319.984375 75.769531 325.28125 78.53125 330.105469 81.3125 C 345.023438 89.878906 359.410156 99.332031 373.199219 109.625 C 379.867188 102.730469 383.246094 92.792969 382.175781 83.265625 C 431.804688 84.5625 483.066406 60.835938 529.597656 78.136719 C 536.28125 80.617188 542.96875 83.980469 550.089844 83.605469 C 557.207031 83.230469 564.664062 77.160156 563.3125 70.152344 C 576.238281 79.90625 587.46875 91.910156 596.355469 105.457031 C 603.265625 88.378906 621.734375 76.710938 640.121094 77.800781 C 652.085938 78.515625 663.976562 84.019531 675.660156 81.351562 C 683.644531 79.511719 690.238281 74.097656 697.171875 69.722656 C 710.300781 61.398438 725.554688 56.457031 741.070312 55.5 C 753.410156 54.730469 767.855469 57.753906 773.414062 68.800781 C 775.445312 72.800781 775.988281 77.367188 776.515625 81.820312 C 779.671875 108.800781 782.824219 135.777344 785.980469 162.757812 C 791.429688 125.164062 796.875 87.570312 802.324219 49.976562 C 778.9375 32.316406 746.101562 38.082031 717.550781 44.675781 C 681.070312 53.09375 644.613281 61.511719 608.132812 69.929688 C 601.992188 71.355469 594.871094 72.578125 589.894531 68.6875 C 585.066406 64.910156 584.277344 57.828125 580.21875 53.226562 C 572.628906 44.621094 558.84375 48.621094 547.796875 51.683594 C 514.8125 60.871094 479.835938 55.140625 445.613281 54.089844 C 411.40625 53.039062 373.742188 58.355469 350.621094 83.605469 C 350.488281 71.429688 334.671875 66.585938 322.5 67.109375 C 298.417969 68.164062 274.695312 76.503906 244.714844 84.152344 Z M 244.734375 84.09375 " fill-opacity="1" fill-rule="nonzero"/><path fill="#f2dbb6" d="M 50.730469 105.417969 C 61.566406 123.90625 61.398438 148.308594 50.335938 166.648438 C 46.445312 173.089844 41.261719 178.992188 39.363281 186.28125 C 37.65625 192.835938 38.820312 199.75 39.949219 206.421875 C 45.527344 239.675781 49.753906 273.136719 53.980469 306.578125 C 56.570312 327.039062 59.144531 347.496094 61.738281 367.957031 C 65.0625 394.222656 68.367188 420.488281 70.921875 446.847656 C 72.800781 466.160156 74.210938 485.980469 69.042969 504.695312 C 66.582031 513.636719 62.621094 522.261719 61.679688 531.503906 C 58.582031 562.46875 89.707031 592.09375 79.074219 621.347656 C 73.476562 636.753906 56.742188 651.351562 63.953125 666.101562 C 68.441406 675.285156 80.332031 678.332031 86.402344 686.539062 C 94.835938 697.964844 89.179688 713.894531 84.257812 727.199219 C 66.695312 774.824219 62.601562 827.355469 72.59375 877.125 C 75.863281 893.429688 81.988281 911.203125 96.769531 918.8125 C 120.0625 930.800781 145.910156 910.773438 168.394531 897.320312 C 171.792969 895.273438 175.605469 893.316406 179.53125 893.84375 C 183.757812 894.40625 187.027344 897.695312 190.144531 900.609375 C 216.820312 925.5 257.523438 934.199219 295.675781 920.109375 C 318.628906 930.820312 349.003906 921.367188 361.851562 899.535156 C 365.664062 893.054688 368.746094 885.089844 375.773438 882.460938 C 390.105469 877.066406 399.082031 897.132812 408.210938 909.417969 C 423.597656 930.140625 459.0625 930.96875 475.402344 910.996094 C 481.769531 903.21875 487.554688 891.964844 497.605469 892.566406 C 502.359375 892.847656 506.398438 895.949219 510.246094 898.746094 C 548.585938 926.628906 599.492188 936.453125 645.4375 924.824219 C 655.714844 914.398438 656.371094 889.671875 670.609375 893.113281 C 676.113281 894.445312 679.117188 900.136719 682.707031 904.515625 C 700.890625 926.796875 740.355469 914.8125 754.367188 889.691406 C 768.363281 864.574219 764.738281 833.742188 760.699219 805.261719 C 757.296875 781.25 753.878906 757.257812 749.558594 733.828125 C 754.59375 690.730469 759.628906 647.648438 764.679688 604.550781 C 765.300781 599.308594 765.84375 593.730469 763.460938 589.015625 C 756.621094 575.5625 731.902344 579.09375 727.074219 564.796875 C 725.949219 550.628906 744.035156 543.753906 752 531.972656 C 766.691406 510.273438 743.230469 481.925781 745.707031 455.847656 C 747.324219 438.898438 759.816406 424.960938 764.171875 408.5 C 766.539062 399.539062 766.425781 390.144531 766.296875 380.863281 C 764.832031 279.992188 763.382812 179.140625 761.917969 78.269531 C 707.125 60.835938 644.835938 68.746094 596.128906 99.3125 C 586.378906 105.4375 572.386719 111.976562 564.890625 103.238281 C 556.0625 92.925781 568.179688 72.371094 556.664062 65.195312 C 506.714844 81.988281 453.445312 88.867188 400.867188 85.277344 C 399.308594 97.582031 383.023438 100.550781 370.625 100.382812 C 317.238281 99.632812 263.855469 98.878906 210.488281 98.128906 C 188.324219 97.808594 165.800781 97.453125 144.59375 90.96875 C 129.472656 86.347656 114.914062 78.609375 99.117188 78.308594 C 83.320312 78.007812 65.53125 89.109375 50.765625 105.457031 Z M 50.730469 105.417969 " fill-opacity="1" fill-rule="nonzero"/><path fill="#f7e3c3" d="M 712.160156 111.824219 C 666.945312 108.292969 626.636719 152.839844 582.078125 144.308594 C 570.789062 142.148438 560.421875 136.644531 549.46875 133.1875 C 517.292969 123.003906 482.636719 130.761719 449.273438 135.835938 C 350.28125 150.882812 249.429688 141.433594 149.328125 143.292969 C 133.605469 143.59375 116.644531 144.609375 104.433594 154.511719 C 89.480469 166.648438 86.4375 188.421875 88.523438 207.566406 C 90.609375 226.730469 96.636719 245.613281 95.417969 264.851562 C 94.027344 286.644531 83.375 307.386719 84.316406 329.21875 C 85.460938 356.214844 103.832031 379.023438 113.222656 404.347656 C 128.253906 444.894531 119.667969 489.925781 110.933594 532.273438 C 102.273438 574.304688 93.59375 616.3125 84.933594 658.339844 C 82.191406 671.679688 79.433594 685.28125 81.046875 698.808594 C 83.039062 715.398438 91.417969 730.429688 97.519531 745.984375 C 109.917969 777.625 112.960938 812.871094 106.144531 846.160156 C 104.695312 853.226562 102.910156 860.945312 106.253906 867.335938 C 108.546875 871.695312 112.867188 874.585938 117.226562 876.878906 C 149.609375 893.882812 193.566406 884.261719 215.878906 855.292969 C 221.816406 847.589844 229.421875 837.519531 238.703125 840.429688 C 249.691406 843.886719 247.8125 860.515625 254.875 869.609375 C 259.460938 875.527344 267.367188 877.554688 274.710938 878.984375 C 320.546875 887.832031 368.277344 886.628906 413.601562 875.507812 C 436.746094 869.816406 460.28125 861.511719 483.78125 865.4375 C 498.902344 867.953125 513.121094 875.488281 528.46875 875.882812 C 547.140625 876.371094 564.347656 866.265625 582.71875 862.882812 C 603.378906 859.085938 624.511719 863.914062 645.496094 865.230469 C 666.476562 866.546875 689.824219 863.203125 703.574219 847.308594 C 714.714844 834.417969 716.96875 816.289062 718.714844 799.34375 C 722.621094 761.636719 726.53125 723.929688 730.4375 686.222656 C 731.789062 673.257812 732.089844 657.757812 721.589844 650.035156 C 716.5 646.277344 709.925781 645.339844 703.652344 644.625 C 572.328125 629.671875 430.019531 660.574219 313.691406 597.824219 C 331.140625 576.183594 355.035156 552.152344 382.046875 558.671875 C 395.195312 561.847656 405.582031 571.878906 418.148438 576.859375 C 453.5 590.855469 491.199219 562.035156 529.203125 561 C 557.601562 560.230469 583.769531 575.035156 610.949219 583.300781 C 638.132812 591.570312 672.769531 590.929688 685.636719 562.9375 C 710.074219 544.335938 710.808594 508.28125 707.277344 477.773438 C 703.761719 447.261719 699.21875 413.027344 718.058594 388.792969 C 726.4375 378.027344 739.808594 366.605469 735.019531 353.828125 C 732.632812 347.460938 726.304688 343.589844 722.019531 338.292969 C 712.179688 326.136719 714.394531 308.230469 719.710938 293.519531 C 725.027344 278.808594 732.992188 264.511719 733.234375 248.882812 C 733.554688 228.269531 720.3125 209.40625 719.953125 188.796875 C 719.710938 175.082031 725.195312 162.027344 728.972656 148.835938 C 732.746094 135.648438 734.699219 120.75 727.957031 108.800781 C 721.214844 96.851562 702.710938 91.308594 712.121094 111.824219 Z M 712.160156 111.824219 " fill-opacity="1" fill-rule="nonzero"/></svg>